# xmcd
#
# Track frame offsets: 
#        150
#        13427
#        29270
#        45295
#        59512
#        79490
#        93240
#        107642
#        122227
#        139017
#
# Disc length: 2044 seconds
#
# Revision: 3
# Processed by: cddbd v1.5.2PL0 Copyright (c) Steve Scherf et al.
# Submitted via: ExactAudioCopy v1.3
#
DISCID=8407fa0a
DTITLE=Hal Ketchum - Past the Point of Rescue
DYEAR=1991
DGENRE=Country
TTITLE0=Small Town Saturday Night
TTITLE1=I Know Where Love Lives
TTITLE2=Old Soldiers
TTITLE3=Somebody's Love
TTITLE4=Past The Point Of Rescue
TTITLE5=Five O'Clock World
TTITLE6=I Miss My Mary
TTITLE7=Don't Strike A Match (To The Book Of Love)
TTITLE8=Long Day Comin'
TTITLE9=She Found The Place
EXTD=YEAR: 1991
EXTT0=
EXTT1=
EXTT2=
EXTT3=
EXTT4=
EXTT5=
EXTT6=
EXTT7=
EXTT8=
EXTT9=
PLAYORDER=
